# File created by Blade
# Date/Time:  Fri Jan 16 17:45:47 2015
#---------------------------------------------------------
:version 1.10
:name HOM
:units
  mass 1.0
  length 1.000000
  angle deg
:documentation
     Acclaim Skeleton File
:root
   axis xyz
   order TX TY TZ RX RY RZ
   position 0.000000 0.000000 0.000000
   orientation 0 0 0
:bonedata
   begin
      id 1
      name Spine_dum
      direction 0.000000 1.000000 0.000000
      length 7.170412
      axis 0.0 0.0 0.0 xyz
   end
   begin
      id 2
      name LeftUpLeg_dum
      direction 1.000000 0.000000 0.000000
      length 4.318350
      axis 0.0 0.0 0.0 xyz
   end
   begin
      id 3
      name RightUpLeg_dum
      direction -1.000000 0.000000 0.000000
      length 4.318350
      axis 0.0 0.0 0.0 xyz
   end
   begin
      id 4
      name Spine
      direction 0.000000 1.000000 0.000000
      length 0.000000
      axis 0.0 0.0 0.0 xyz
      dof rx ry rz
   end
   begin
      id 5
      name Spine_dum1
      direction 0.000000 1.000000 0.000000
      length 14.276153
      axis 0.0 0.0 0.0 xyz
   end
   begin
      id 6
      name Spine_dum2
      direction 0.000000 1.000000 0.000000
      length 10.718243
      axis 0.0 0.0 0.0 xyz
   end
   begin
      id 7
      name Spine_dum3
      direction 0.000000 1.000000 0.000000
      length 10.718243
      axis 0.0 0.0 0.0 xyz
   end
   begin
      id 8
      name Head
      direction 0.000000 1.000000 0.000000
      length 4.527550
      axis 0.0 0.0 0.0 xyz
      dof rx ry rz
   end
   begin
      id 9
      name LeftShoulder
      direction 1.000000 0.000000 0.000000
      length 7.058872
      axis 0.0 0.0 -90.0 xyz
      dof rx ry rz
   end
   begin
      id 10
      name LeftArm
      direction 1.000000 0.000000 0.000000
      length 10.955525
      axis 0.0 0.0 -90.0 xyz
      dof rx ry rz
   end
   begin
      id 11
      name LeftForeArm
      direction 1.000000 0.000000 0.000000
      length 8.193716
      axis 0.0 0.0 -90.0 xyz
      dof ry rz rx
   end
   begin
      id 12
      name LeftHand
      direction 0.000000 0.000000 0.000000
      length 0.000000
      axis 0.0 0.0 -90.0 xyz
      dof rx ry rz
   end
   begin
      id 13
      name LeftHand_dum1
      direction 0.000000 0.000000 0.000000
      length 0.000000
      axis 0.0 0.0 -90.0 xyz
   end
   begin
      id 14
      name LeftHand_dum2
      direction 1.000000 0.000000 0.000000
      length 3.937000
      axis 0.0 0.0 -90.0 xyz
   end
   begin
      id 15
      name LeftHandThumb1
      direction 0.000000 0.000000 1.000000
      length 3.937000
      axis 0.0 0.0 -90.0 xyz
      dof rx rz ry
   end
   begin
      id 16
      name RightShoulder
      direction -1.000000 0.000000 0.000000
      length 7.058872
      axis 0.0 0.0 90.0 xyz
      dof rx ry rz
   end
   begin
      id 17
      name RightArm
      direction -1.000000 0.000000 0.000000
      length 10.955525
      axis 0.0 0.0 90.0 xyz
      dof rx ry rz
   end
   begin
      id 18
      name RightForeArm
      direction -1.000000 0.000000 0.000000
      length 8.193716
      axis 0.0 0.0 90.0 xyz
      dof ry rz rx
   end
   begin
      id 19
      name RightHand
      direction 0.000000 0.000000 0.000000
      length 0.000000
      axis 0.0 0.0 90.0 xyz
      dof rx ry rz
   end
   begin
      id 20
      name RightHand_dum1
      direction 0.000000 0.000000 0.000000
      length 0.000000
      axis 0.0 0.0 90.0 xyz
   end
   begin
      id 21
      name RightHand_dum2
      direction -1.000000 0.000000 0.000000
      length 3.937000
      axis 0.0 0.0 90.0 xyz
   end
   begin
      id 22
      name RightHandThumb1
      direction 0.000000 0.000000 1.000000
      length 3.937000
      axis 0.0 0.0 90.0 xyz
      dof rx rz ry
   end
   begin
      id 23
      name LeftUpLeg
      direction 0.000000 -1.000000 0.000000
      length 17.323638
      axis 0.0 0.0 0.0 xyz
      dof rx ry rz
   end
   begin
      id 24
      name LeftLeg
      direction 0.000000 -1.000000 0.000000
      length 16.270368
      axis 0.0 0.0 0.0 xyz
      dof rx ry rz
   end
   begin
      id 25
      name LeftFoot
      direction 0.000000 -0.258819 0.965926
      length 4.922846
      axis 15.0 0.0 0.0 xyz
      dof rx ry rz
   end
   begin
      id 26
      name LeftToeBase
      direction 0.000000 0.000000 1.000000
      length 2.952750
      axis 0.0 0.0 0.0 xyz
      dof rx ry rz
   end
   begin
      id 27
      name RightUpLeg
      direction 0.000000 -1.000000 0.000000
      length 17.323638
      axis 0.0 0.0 0.0 xyz
      dof rx ry rz
   end
   begin
      id 28
      name RightLeg
      direction 0.000000 -1.000000 0.000000
      length 16.270368
      axis 0.0 0.0 0.0 xyz
      dof rx ry rz
   end
   begin
      id 29
      name RightFoot
      direction 0.000000 -0.258819 0.965926
      length 4.922846
      axis 15.0 0.0 0.0 xyz
      dof rx ry rz
   end
   begin
      id 30
      name RightToeBase
      direction 0.000000 0.000000 1.000000
      length 2.952750
      axis 0.0 0.0 0.0 xyz
      dof rx ry rz
   end
:hierarchy
   begin
      root Spine_dum LeftUpLeg_dum RightUpLeg_dum
      Spine_dum Spine
      LeftUpLeg_dum LeftUpLeg
      RightUpLeg_dum RightUpLeg
      Spine Spine_dum1 Spine_dum2 Spine_dum3
      Spine_dum1 Head
      Spine_dum2 LeftShoulder
      Spine_dum3 RightShoulder
      LeftShoulder LeftArm
      LeftArm LeftForeArm
      LeftForeArm LeftHand
      LeftHand LeftHand_dum1 LeftHand_dum2
      LeftHand_dum1 LeftHandThumb1
      RightShoulder RightArm
      RightArm RightForeArm
      RightForeArm RightHand
      RightHand RightHand_dum1 RightHand_dum2
      RightHand_dum1 RightHandThumb1
      LeftUpLeg LeftLeg
      LeftLeg LeftFoot
      LeftFoot LeftToeBase
      RightUpLeg RightLeg
      RightLeg RightFoot
      RightFoot RightToeBase
   end

# File created by Blade
# Date/Time:  Fri Jan 16 17:45:28 2015
# Frame Rate: 120.000 fps
#------------------------------------------------------
:FULLY-SPECIFIED
:DEGREES
3334
root -5.126283 35.185713 -9.494623 -0.822006 -2.760807 -6.040135
Spine -5.094074 -3.025982 9.077814
Head 8.337856 2.752881 -6.436281
LeftShoulder -22.235657 13.328902 -15.217697
LeftArm 16.094533 -4.407489 -77.974871
LeftForeArm 4.536673 -0.000000 12.904267
LeftHand 1.728889 0.000000 -5.474078
LeftHandThumb1 -26.253704 0.000000 33.147579
RightShoulder -9.317384 1.023151 5.289763
RightArm -12.550543 27.853495 68.348094
RightForeArm 17.730420 -0.000000 104.852276
RightHand -1.095776 0.000000 -8.713994
RightHandThumb1 -24.326973 -0.000000 -32.862282
LeftUpLeg 11.032595 13.182757 6.657066
LeftLeg -9.373012 -0.000000 0.000000
LeftFoot -15.916260 27.080802 -7.295748
LeftToeBase 23.151445 -0.000000 -0.000000
RightUpLeg 8.244307 -5.904144 3.817019
RightLeg -4.457461 -0.000000 0.000000
RightFoot -5.388254 -28.445594 4.885201
RightToeBase 13.596532 -0.000000 -0.000000
3335
root -5.123290 35.184506 -9.491826 -0.823444 -2.782957 -6.047668
Spine -5.090753 -3.090254 9.087287
Head 8.342248 2.820651 -6.446090
LeftShoulder -22.254269 13.357901 -15.201752
LeftArm 16.059900 -4.494530 -78.033432
LeftForeArm 4.650778 -0.000000 12.848052
LeftHand 1.757624 0.000000 -5.420436
LeftHandThumb1 -26.253704 0.000000 33.147579
RightShoulder -9.331872 1.082178 5.380398
RightArm -12.864562 28.843744 67.832773
RightForeArm 18.913638 -0.000000 104.713567
RightHand -0.965411 -0.000000 -10.664588
RightHandThumb1 -24.326973 -0.000000 -32.862282
LeftUpLeg 11.046813 13.182372 6.659384
LeftLeg -9.379377 -0.000000 0.000000
LeftFoot -15.930490 27.107451 -7.274842
LeftToeBase 23.171757 -0.000000 -0.000000
RightUpLeg 8.238466 -5.900358 3.819519
RightLeg -4.438417 -0.000000 0.000000
RightFoot -5.402328 -28.443506 4.888062
RightToeBase 13.579177 -0.000000 -0.000000
3336
root -5.120443 35.182732 -9.484811 -0.859427 -2.846525 -6.070446
Spine -5.048966 -3.126903 9.115674
Head 8.352707 2.915746 -6.444412
LeftShoulder -22.261473 13.384938 -15.195344
LeftArm 16.008497 -4.460833 -78.037392
LeftForeArm 4.572031 -0.000000 12.794919
LeftHand 1.767581 -0.000000 -5.461607
LeftHandThumb1 -26.253704 0.000000 33.147579
RightShoulder -9.353972 1.114503 5.468216
RightArm -13.094636 29.835322 67.379179
RightForeArm 20.000669 -0.000000 104.493171
RightHand -0.509580 -0.000000 -12.413130
RightHandThumb1 -24.326973 -0.000000 -32.862282
LeftUpLeg 11.127543 13.263690 6.694639
LeftLeg -9.409264 -0.000000 0.000000
LeftFoot -15.919728 27.066755 -7.310557
LeftToeBase 23.019920 -0.000000 -0.000000
RightUpLeg 8.278207 -5.836294 3.834527
RightLeg -4.426103 -0.000000 0.000000
RightFoot -5.423483 -28.466589 4.826921
RightToeBase 13.726109 -0.000000 -0.000000
3337
root -5.117830 35.181471 -9.480227 -0.873515 -2.894267 -6.080308
Spine -5.032895 -3.181057 9.122680
Head 8.369859 2.996410 -6.437033
LeftShoulder -22.272324 13.440632 -15.183800
LeftArm 15.984032 -4.539499 -78.083649
LeftForeArm 4.777401 -0.000000 12.759291
LeftHand 1.900871 0.000000 -5.049063
LeftHandThumb1 -26.253704 0.000000 33.147579
RightShoulder -9.377016 1.253790 5.520815
RightArm -13.442311 30.752602 66.815058
RightForeArm 21.092024 -0.000000 104.281022
RightHand -0.352382 -0.000000 -14.208497
RightHandThumb1 -24.326973 -0.000000 -32.862282
LeftUpLeg 11.169302 13.289179 6.706721
LeftLeg -9.424735 -0.000000 0.000000
LeftFoot -15.944190 27.111024 -7.226613
LeftToeBase 23.200926 -0.000000 -0.000000
RightUpLeg 8.289367 -5.802756 3.835844
RightLeg -4.408403 -0.000000 0.000000
RightFoot -5.427815 -28.445367 4.809734
RightToeBase 13.750569 -0.000000 -0.000000
3338
root -5.117934 35.181283 -9.479863 -0.869656 -2.906898 -6.074695
Spine -5.039117 -3.272023 9.090828
Head 8.400868 3.086995 -6.387272
LeftShoulder -22.277838 13.494796 -15.165304
LeftArm 15.983558 -4.581942 -78.110015
LeftForeArm 4.660313 -0.000000 12.665152
LeftHand 1.860500 -0.000000 -5.435136
LeftHandThumb1 -26.253704 0.000000 33.147579
RightShoulder -9.390680 1.395914 5.599208
RightArm -13.806851 31.832255 66.205673
RightForeArm 22.134365 -0.000000 104.017454
RightHand -0.196746 -0.000000 -15.119505
RightHandThumb1 -24.326973 -0.000000 -32.862282
LeftUpLeg 11.158270 13.290967 6.700109
LeftLeg -9.402502 -0.000000 0.000000
LeftFoot -15.941823 27.080968 -7.310485
LeftToeBase 23.025803 -0.000000 -0.000000
RightUpLeg 8.279465 -5.777112 3.832318
RightLeg -4.398486 -0.000000 0.000000
RightFoot -5.439773 -28.440413 4.900414
RightToeBase 13.589169 -0.000000 -0.000000
3339
root -5.116891 35.180340 -9.476899 -0.874962 -2.952743 -6.078293
Spine -5.034900 -3.337596 9.080725
Head 8.438688 3.182431 -6.355135
LeftShoulder -22.296158 13.529004 -15.141102
LeftArm 15.964554 -4.599033 -78.135481
LeftForeArm 4.612284 -0.000000 12.579258
LeftHand 1.834097 -0.000000 -5.512333
LeftHandThumb1 -26.253704 0.000000 33.147579
RightShoulder -9.386810 1.536951 5.624574
RightArm -14.180446 32.859865 65.652517
RightForeArm 22.742101 0.000000 103.754028
RightHand -0.100713 -0.000000 -16.401937
RightHandThumb1 -24.326973 -0.000000 -32.862282
LeftUpLeg 11.178867 13.310844 6.705084
LeftLeg -9.401068 -0.000000 0.000000
LeftFoot -15.942629 27.112850 -7.275445
LeftToeBase 23.004928 -0.000000 -0.000000
RightUpLeg 8.280256 -5.744201 3.833035
RightLeg -4.384931 -0.000000 0.000000
RightFoot -5.454379 -28.446523 4.902894
RightToeBase 13.602834 -0.000000 -0.000000
3340
root -5.116329 35.179789 -9.473141 -0.882293 -3.012989 -6.088961
Spine -5.029581 -3.385314 9.086880
Head 8.487056 3.274811 -6.344836
LeftShoulder -22.311564 13.570879 -15.129119
LeftArm 15.962557 -4.614074 -78.147030
LeftForeArm 4.654714 -0.000000 12.482432
LeftHand 1.823950 -0.000000 -5.548019
LeftHandThumb1 -26.253704 0.000000 33.147579
RightShoulder -9.380791 1.654033 5.614284
RightArm -14.538418 34.132250 65.177878
RightForeArm 23.496481 -0.000000 103.480491
RightHand 0.064353 -0.000000 -17.085271
RightHandThumb1 -24.326973 -0.000000 -32.862282
LeftUpLeg 11.211684 13.352393 6.721848
LeftLeg -9.410077 -0.000000 0.000000
LeftFoot -15.978070 27.144701 -7.217528
LeftToeBase 23.177587 -0.000000 -0.000000
RightUpLeg 8.282243 -5.715823 3.841883
RightLeg -4.369177 -0.000000 0.000000
RightFoot -5.451696 -28.447108 4.799980
RightToeBase 13.776751 -0.000000 -0.000000
3341
root -5.115933 35.178799 -9.470833 -0.884375 -3.077656 -6.100914
Spine -5.023069 -3.418708 9.093986
Head 8.527216 3.348021 -6.333099
LeftShoulder -22.316870 13.595214 -15.112081
LeftArm 15.940241 -4.631186 -78.154196
LeftForeArm 4.724135 -0.000000 12.400650
LeftHand 1.811045 -0.000000 -5.638038
LeftHandThumb1 -26.253704 0.000000 33.147579
RightShoulder -9.385115 1.731685 5.626502
RightArm -14.859973 35.381951 64.690768
RightForeArm 23.998396 -0.000000 103.186894
RightHand 0.289154 -0.000000 -17.493960
RightHandThumb1 -24.326973 -0.000000 -32.862282
LeftUpLeg 11.239741 13.349064 6.732694
LeftLeg -9.417418 -0.000000 0.000000
LeftFoot -15.999353 27.192680 -7.220127
LeftToeBase 23.210222 -0.000000 -0.000000
RightUpLeg 8.280993 -5.664834 3.851682
RightLeg -4.359850 -0.000000 0.000000
RightFoot -5.449232 -28.432891 4.777384
RightToeBase 13.773897 -0.000000 -0.000000
3342
root -5.115547 35.178320 -9.467056 -0.887089 -3.140757 -6.107173
Spine -5.030844 -3.442775 9.091733
Head 8.609585 3.425840 -6.313421
LeftShoulder -22.302268 13.636979 -15.091858
LeftArm 15.923761 -4.699184 -78.173867
LeftForeArm 4.802878 -0.000000 12.316678
LeftHand 1.761793 -0.000000 -5.749251
LeftHandThumb1 -26.253704 0.000000 33.147579
RightShoulder -9.373937 1.822662 5.628194
RightArm -15.264423 36.667207 64.160241
RightForeArm 24.587738 0.000000 102.916291
RightHand 0.525416 -0.000000 -17.852700
RightHandThumb1 -24.326973 -0.000000 -32.862282
LeftUpLeg 11.268921 13.374000 6.739024
LeftLeg -9.426280 -0.000000 0.000000
LeftFoot -16.007375 27.237000 -7.224834
LeftToeBase 23.177725 -0.000000 -0.000000
RightUpLeg 8.289247 -5.637089 3.854025
RightLeg -4.365872 -0.000000 0.000000
RightFoot -5.440247 -28.405444 4.758255
RightToeBase 13.777017 -0.000000 -0.000000
3343
root -5.116287 35.178763 -9.463417 -0.889251 -3.206539 -6.110226
Spine -5.036914 -3.444510 9.077147
Head 8.692215 3.453472 -6.292874
LeftShoulder -22.276275 13.642584 -15.065800
LeftArm 15.883787 -4.721118 -78.160855
LeftForeArm 4.830445 -0.000000 12.218205
LeftHand 1.742782 -0.000000 -5.779107
LeftHandThumb1 -26.253704 0.000000 33.147579
RightShoulder -9.376181 1.887778 5.638717
RightArm -15.665785 38.026458 63.660148
RightForeArm 25.231622 -0.000000 102.665964
RightHand 0.665249 -0.000000 -17.900991
RightHandThumb1 -24.326973 -0.000000 -32.862282
LeftUpLeg 11.289198 13.405024 6.744040
LeftLeg -9.415788 -0.000000 0.000000
LeftFoot -16.018888 27.227794 -7.333487
LeftToeBase 23.014487 -0.000000 -0.000000
RightUpLeg 8.297382 -5.610836 3.852342
RightLeg -4.372875 -0.000000 0.000000
RightFoot -5.431271 -28.369944 4.774376
RightToeBase 13.738544 -0.000000 -0.000000
3344
root -5.113623 35.178279 -9.461978 -0.875127 -3.266616 -6.108833
Spine -5.060366 -3.438521 9.076543
Head 8.770835 3.479658 -6.294627
LeftShoulder -22.255021 13.657635 -15.055985
LeftArm 15.865815 -4.778276 -78.167095
LeftForeArm 4.888212 -0.000000 12.118824
LeftHand 1.755546 0.000000 -5.784827
LeftHandThumb1 -26.253704 0.000000 33.147579
RightShoulder -9.374802 1.962028 5.586550
RightArm -16.083000 39.475316 63.193788
RightForeArm 25.877027 -0.000000 102.386248
RightHand 0.785228 -0.000000 -17.875764
RightHandThumb1 -24.326973 -0.000000 -32.862282
LeftUpLeg 11.362469 13.135924 6.708412
LeftLeg -9.557527 -0.000000 0.000000
LeftFoot -16.002426 27.510508 -7.369116
LeftToeBase 23.170619 -0.000000 -0.000000
RightUpLeg 8.280441 -5.607381 3.842248
RightLeg -4.372341 -0.000000 0.000000
RightFoot -5.425297 -28.319260 4.764715
RightToeBase 13.759084 -0.000000 -0.000000
3345
root -5.115163 35.177784 -9.457693 -0.870922 -3.351857 -6.117762
Spine -5.069602 -3.418123 9.071747
Head 8.847847 3.508781 -6.279301
LeftShoulder -22.268042 13.636375 -15.036602
LeftArm 15.831790 -4.805221 -78.165797
LeftForeArm 4.777206 -0.000000 12.024321
LeftHand 1.799508 -0.000000 -5.511270
LeftHandThumb1 -26.253704 0.000000 33.147579
RightShoulder -9.393738 2.008241 5.595547
RightArm -16.522791 40.719692 62.655432
RightForeArm 26.447390 -0.000000 102.170973
RightHand 1.060800 -0.000000 -18.282090
RightHandThumb1 -24.326973 -0.000000 -32.862282
LeftUpLeg 11.413888 13.105285 6.715005
LeftLeg -9.607927 -0.000000 0.000000
LeftFoot -16.003656 27.592151 -7.418586
LeftToeBase 23.137667 -0.000000 -0.000000
RightUpLeg 8.283370 -5.561847 3.850738
RightLeg -4.381281 -0.000000 0.000000
RightFoot -5.418730 -28.285401 4.772069
RightToeBase 13.725814 -0.000000 -0.000000
